<svg xmlns="http://www.w3.org/2000/svg" viewBox="0 0 15.94 27.21"><defs><style>.cls-1{fill:none;stroke:#424243;stroke-miterlimit:10;stroke-width:0.87px;}</style></defs><title>designs</title><g id="Layer_2" data-name="Layer 2"><g id="Layer_1-2" data-name="Layer 1"><path class="cls-1" d="M8,5.36a3.81,3.81,0,0,0,6.92,3.19,7.55,7.55,0,0,0,.52-4.47A12.91,12.91,0,0,0,14.47.75l-.1-.22A12.77,12.77,0,0,0,11,2.06a7.52,7.52,0,0,0-3.06,3.3"/><path class="cls-1" d="M2.45,26.39A3.34,3.34,0,0,0,7,24.74L10.1,18,7,16.53,3.88,15.1.76,21.87A3.34,3.34,0,0,0,2.45,26.39Z"/><rect class="cls-1" x="5.03" y="12.22" width="6.74" height="2.51" transform="translate(-7.35 15.46) rotate(-65.25)"/></g></g></svg>