<svg xmlns="http://www.w3.org/2000/svg" viewBox="0 0 16.84 27.41"><defs><style>.cls-1{fill:#fff;}.cls-2{fill:none;stroke:#424243;stroke-miterlimit:10;stroke-width:0.89px;}</style></defs><title>additional</title><g id="Layer_2" data-name="Layer 2"><g id="Layer_1-2" data-name="Layer 1"><path class="cls-1" d="M11,12.93h5.31L14.58,24.54a3,3,0,0,1-3,2.42H5.22a3,3,0,0,1-3-2.42L.52,12.93H13.65"/><path class="cls-2" d="M11,12.93h5.31L14.58,24.54a3,3,0,0,1-3,2.42H5.22a3,3,0,0,1-3-2.42L.52,12.93H13.65"/><path class="cls-1" d="M10.81,7.27a4.79,4.79,0,0,0-.87-2.69C7.28.42,2.05.44,2.05.44v7.7a6.23,6.23,0,0,0,6.23,6.23h.27a6.23,6.23,0,0,0,6.24-6.23V.44S9.56.42,6.9,4.58A4.72,4.72,0,0,0,6,7.27a2.4,2.4,0,1,0,4.79,0"/><path class="cls-2" d="M10.81,7.27a4.79,4.79,0,0,0-.87-2.69C7.28.42,2.05.44,2.05.44v7.7a6.23,6.23,0,0,0,6.23,6.23h.27a6.23,6.23,0,0,0,6.24-6.23V.44S9.56.42,6.9,4.58A4.72,4.72,0,0,0,6,7.27a2.4,2.4,0,1,0,4.79,0"/></g></g></svg>