<svg xmlns="http://www.w3.org/2000/svg" viewBox="0 0 19.74 27.1"><defs><style>.cls-1{fill:none;stroke:#424243;stroke-miterlimit:10;stroke-width:0.88px;}</style></defs><title>manicure</title><g id="Layer_2" data-name="Layer 2"><g id="Layer_1-2" data-name="Layer 1"><path class="cls-1" d="M7.2,18a4.69,4.69,0,0,0-2.66.87C.41,21.48.44,26.66.44,26.66H8.06l1,0c10.55,0,10.19-10.38,10.19-10.38V2c-3.94,0-3.65,3.32-3.65,3.32v5.91L11.05.53A3,3,0,0,0,8.87,4.78l3.2,7.32L1.81,6.18A3.25,3.25,0,0,0,3,10.88L8.43,14h-8s0,5.18,4.1,7.81a4.62,4.62,0,0,0,2.66.87A2.37,2.37,0,1,0,7.2,18"/></g></g></svg>