<svg xmlns="http://www.w3.org/2000/svg" viewBox="0 0 28.01 26.91"><defs><style>.cls-1{fill:none;stroke:#424243;stroke-miterlimit:10;stroke-width:0.87px;}</style></defs><title>pedicure</title><g id="Layer_2" data-name="Layer 2"><g id="Layer_1-2" data-name="Layer 1"><path class="cls-1" d="M9,7.41a4.62,4.62,0,0,1-.86,2.64C5.57,14.14.44,14.11.44,14.11V6.56A6.12,6.12,0,0,1,6.56.44h.26A6.12,6.12,0,0,1,13,6.56v7.55s-5.14,0-7.75-4.06a4.62,4.62,0,0,1-.86-2.64,2.35,2.35,0,1,1,4.7,0"/><path class="cls-1" d="M11.8,14.11l-.7,8.48a4.24,4.24,0,0,1-4.41,3.89,4.24,4.24,0,0,1-4.41-3.89L1.58,14"/><path class="cls-1" d="M23.67,7.41a4.63,4.63,0,0,1-.87,2.64c-2.61,4.09-7.74,4.06-7.74,4.06V6.56A6.12,6.12,0,0,1,21.18.44h.27a6.12,6.12,0,0,1,6.12,6.12v7.55s-5.14,0-7.75-4.06A4.62,4.62,0,0,1,19,7.41a2.36,2.36,0,0,1,4.71,0"/><path class="cls-1" d="M26.42,14.11l-.7,8.48a4.24,4.24,0,0,1-4.41,3.89,4.24,4.24,0,0,1-4.41-3.89L16.2,14"/></g></g></svg>