<?xml version="1.0"?>
<svg xmlns="http://www.w3.org/2000/svg" id="Layer_1" enable-background="new 0 0 512.002 512.002" height="512px" viewBox="0 0 512.002 512.002" width="512px" class=""><g><path d="m189.892 132.654-27.06 27.06-108.25-108.25 27.06-27.06c11.21-11.21 29.39-11.21 40.6 0 70.472 70.472 67.785 67.778 67.94 67.95 10.92 11.23 10.82 29.191-.29 40.3z" fill="#8bc4ff" data-original="#8BC4FF" class="active-path" style="fill:#FB9168" data-old_color="#8bc4ff"/><path d="m460.522 457.404-20.3 20.3c-48.57 48.57-178.82-2.92-290.92-115.02-92.34-92.34-143.55-196.99-131.59-258.17 4.709-24.078 14.9-31.08 36.87-53.05l108.25 108.25c-21.466 21.466-20.617 20.583-21.07 21.13-17.12 19.5 10.1 76.15 61.67 127.71 52.31 52.32 109.86 79.58 128.54 60.9l20.3-20.3z" fill="#8bc4ff" data-original="#8BC4FF" class="active-path" style="fill:#FB9168" data-old_color="#8bc4ff"/><path d="m487.582 430.345-27.06 27.06-108.25-108.25 27.06-27.06c11.21-11.21 29.39-11.21 40.6 0 70.472 70.471 67.785 67.777 67.94 67.95 10.92 11.23 10.82 29.189-.29 40.3z" fill="#8bc4ff" data-original="#8BC4FF" class="active-path" style="fill:#FB9168" data-old_color="#8bc4ff"/><path d="m190.182 92.354c-12.744 14.179-38.348 16.362-54.41.3l-61.19-61.19 7.06-7.06c11.211-11.211 29.388-11.212 40.6 0 70.472 70.472 67.785 67.778 67.94 67.95z" fill="#a2d0ff" data-original="#A2D0FF" class="" style="fill:#F788EE" data-old_color="#a2d0ff"/><path d="m440.222 437.704c-48.57 48.57-178.82-2.92-290.92-115.02-74.47-74.47-122.19-156.95-131.59-218.17 4.709-24.078 14.9-31.08 36.87-53.05 67.464 67.464-98.716-98.716 108.25 108.25-21.466 21.466-20.617 20.583-21.07 21.13-17.12 19.5 10.1 76.15 61.67 127.71 52.31 52.32 109.86 79.58 128.54 60.9l20.3-20.3c95.035 95.036 88.417 88.084 87.95 88.55z" fill="#a2d0ff" data-original="#A2D0FF" class="" style="fill:#F788EE" data-old_color="#a2d0ff"/><path d="m487.872 390.045c-12.856 14.269-38.43 16.28-54.41.3l-61.19-61.19 7.06-7.06c11.212-11.211 29.389-11.211 40.6 0 70.472 70.471 67.785 67.777 67.94 67.95z" fill="#a2d0ff" data-original="#A2D0FF" class="" style="fill:#F788EE" data-old_color="#a2d0ff"/><g fill="#2e58ff"><path d="m498.898 378.433-67.656-67.656c-17.468-17.469-45.749-17.474-63.221 0-7.561 7.561-39.736 39.736-47.359 47.359-6.503 6.503-52.018-6.988-105.921-60.89-24.037-24.038-43.188-49.758-53.923-72.422-9.731-20.545-8.859-31.606-6.967-33.499l47.359-47.359c17.431-17.431 17.431-45.792 0-63.222l-67.656-67.657c-17.431-17.43-45.791-17.429-63.221 0-7.561 7.561-39.737 39.737-47.36 47.36-28.284 28.284-30.525 77.59-6.311 138.837 61.145 154.657 254.306 312.702 371.993 312.702 26.15 0 47.591-7.68 62.884-22.973l47.359-47.359c17.47-17.469 17.475-45.749 0-63.221zm-387.972-342.718 67.656 67.657c4.954 4.953 4.954 13.013 0 17.967l-15.749 15.749-85.622-85.624 15.749-15.749c4.954-4.953 13.013-4.953 17.966 0zm213.542 429.851c-109.603-43.332-234.72-168.457-278.047-278.046-18.955-47.943-19.254-86.012-.821-104.445l8.983-8.983 85.623 85.623-8.983 8.983c-60.105 60.105 151.9 272.234 212.065 212.065l8.983-8.983 85.623 85.624-8.983 8.983c-18.433 18.432-56.501 18.133-104.443-.821zm151.803-46.539-15.749 15.749-85.622-85.623 15.75-15.75c4.962-4.963 13.001-4.965 17.966.001l67.656 67.656c4.964 4.965 4.965 13-.001 17.967z" data-original="#2E58FF" class="" style="fill:#EC6834" data-old_color="#2E58FF"/><path d="m287.992 201.595c12.352 0 22.4 10.048 22.4 22.4 0 8.836 7.163 16 16 16s16-7.164 16-16c0-29.996-24.404-54.4-54.4-54.4-8.837 0-16 7.164-16 16s7.163 16 16 16z" data-original="#2E58FF" class="" style="fill:#EC6834" data-old_color="#2E58FF"/><path d="m287.992 124.794c54.699 0 99.2 44.501 99.2 99.2 0 8.836 7.163 16 16 16s16-7.164 16-16c0-72.344-58.856-131.2-131.2-131.2-8.837 0-16 7.164-16 16s7.163 16 16 16z" data-original="#2E58FF" class="" style="fill:#EC6834" data-old_color="#2E58FF"/><path d="m287.992 47.994c97.047 0 176 78.953 176 176 0 8.836 7.163 16 16 16s16-7.164 16-16c0-114.691-93.309-208-208-208-8.837 0-16 7.164-16 16s7.163 16 16 16z" data-original="#2E58FF" class="" style="fill:#EC6834" data-old_color="#2E58FF"/></g></g> </svg>
